<?xml version="1.0" encoding="UTF-8"?>
<!DOCTYPE svg  PUBLIC '-//W3C//DTD SVG 1.1//EN'  'http://www.w3.org/Graphics/SVG/1.1/DTD/svg11.dtd'>
<svg enable-background="new 0 0 32 32" version="1.1" viewBox="0 0 32 32" xml:space="preserve" xmlns="http://www.w3.org/2000/svg">
<g fill="#fff">
	<path d="m20.916 16c0 2.728-2.211 4.938-4.938 4.938s-4.939-2.21-4.939-4.938c0-0.394 0.051-0.773 0.138-1.14h-0.897v6.838h11.396v-6.838h-0.897c0.086 0.367 0.137 0.746 0.137 1.14z"/>
	<path d="m15.978 18.659c1.466 0 2.659-1.193 2.659-2.659s-1.193-2.659-2.659-2.659-2.659 1.193-2.659 2.659 1.192 2.659 2.659 2.659z"/>
	<rect x="18.637" y="10.302" width="3.039" height="3.039"/>
	<path d="M16,0C7.164,0,0,7.164,0,16c0,8.837,7.164,16,16,16c8.837,0,16-7.163,16-16C32,7.164,24.837,0,16,0z    M23.955,21.698c0,1.254-1.025,2.279-2.279,2.279H10.279C9.026,23.978,8,22.952,8,21.698V10.302c0-1.253,1.026-2.279,2.279-2.279   h11.396c1.254,0,2.279,1.026,2.279,2.279V21.698z"/>
</g>
</svg>
