<?xml version="1.0" encoding="UTF-8"?>
<!DOCTYPE svg  PUBLIC '-//W3C//DTD SVG 1.1//EN'  'http://www.w3.org/Graphics/SVG/1.1/DTD/svg11.dtd'>
<svg enable-background="new 0 0 80 140" version="1.1" viewBox="0 0 80 140" xml:space="preserve" xmlns="http://www.w3.org/2000/svg">
	<path d="m40 7.101c15.622 0 28.285 12.664 28.285 28.286 0 5.112-1.362 9.902-3.734 14.041 4.503 0.643 7.971 4.506 7.971 9.188 0 5.133-4.16 9.293-9.293 9.293-4.682 0-8.545-3.467-9.188-7.971-0.353 0.201-0.709 0.396-1.07 0.583-1.012 6.26-6.426 11.045-12.971 11.045-6.546 0-11.96-4.786-12.972-11.046-0.361-0.187-0.717-0.381-1.069-0.582-0.644 4.504-4.505 7.971-9.188 7.971-5.132 0-9.292-4.161-9.292-9.293 0-4.682 3.466-8.544 7.97-9.188-2.372-4.139-3.735-8.929-3.735-14.041 0-15.622 12.664-28.286 28.286-28.286m0-7c-19.457 0-35.286 15.829-35.286 35.286 0 3.646 0.568 7.263 1.668 10.713-3.619 3.016-5.903 7.552-5.903 12.515 0 8.984 7.309 16.294 16.292 16.294 3.157 0 6.141-0.925 8.672-2.529 3.681 3.846 8.86 6.187 14.557 6.187s10.875-2.341 14.556-6.187c2.531 1.604 5.516 2.529 8.673 2.529 8.984 0 16.293-7.31 16.293-16.294 0-4.962-2.284-9.499-5.903-12.516 1.099-3.45 1.667-7.067 1.667-10.713-1e-3 -19.456-15.83-35.285-35.286-35.285z" fill="#E84D37"/>
<path d="m63.229 78.908c-2.835 0-5.56-0.598-8.04-1.681-0.371 0.3-0.761 0.574-1.149 0.851l0.525 0.525-3.898 3.898-1.673-1.673c-0.687 0.273-1.386 0.517-2.101 0.728l2.359 2.359-3.898 3.898-3.898-3.898 1.556-1.556c-0.989 0.122-1.989 0.206-3.011 0.206-0.988 0-1.958-0.079-2.917-0.194l1.543 1.544-3.898 3.898-3.898-3.898 2.339-2.34c-0.716-0.209-1.417-0.451-2.104-0.724l-1.649 1.649-3.898-3.898 0.49-0.489c-0.405-0.288-0.811-0.575-1.197-0.887-2.48 1.083-5.204 1.681-8.039 1.681-0.204 0-0.401-0.024-0.603-0.03-0.069 0.531-0.032 1.083 0.16 1.622l20.375 57.125c0.024 0.068 0.059 0.128 0.087 0.193 0.03 0.07 0.058 0.139 0.092 0.206 0.07 0.14 0.15 0.271 0.237 0.397 0.029 0.042 0.054 0.087 0.084 0.129 0.125 0.166 0.262 0.32 0.412 0.459 0.032 0.03 0.069 0.055 0.103 0.084 0.125 0.107 0.254 0.205 0.392 0.294 0.058 0.037 0.118 0.07 0.179 0.104 0.138 0.077 0.279 0.145 0.426 0.202 0.038 0.015 0.07 0.038 0.108 0.052 0.02 7e-3 0.04 9e-3 0.059 0.016 0.127 0.043 0.258 0.074 0.391 0.103 0.055 0.012 0.109 0.029 0.164 0.038 0.185 0.03 0.373 0.048 0.562 0.048s0.377-0.018 0.562-0.048c0.057-9e-3 0.113-0.027 0.17-0.04 0.13-0.027 0.259-0.058 0.384-0.101 0.021-7e-3 0.041-9e-3 0.061-0.016 0.04-0.014 0.072-0.037 0.111-0.053 0.145-0.058 0.285-0.124 0.421-0.2 0.062-0.034 0.123-0.068 0.183-0.106 0.136-0.088 0.265-0.186 0.388-0.291 0.034-0.03 0.072-0.056 0.105-0.086 0.15-0.14 0.287-0.294 0.412-0.46 0.03-0.04 0.054-0.084 0.082-0.125 0.088-0.128 0.169-0.261 0.24-0.401 0.033-0.066 0.062-0.134 0.09-0.201 0.028-0.066 0.064-0.128 0.089-0.197l20.373-57.124c0.192-0.539 0.229-1.091 0.16-1.622-0.202 6e-3 -0.399 0.03-0.603 0.03zm-13.977 15.633l-3.898 3.898-3.898-3.898 3.898-3.898 3.898 3.898zm-13.109 5.313l3.898-3.898 3.898 3.898-3.898 3.898-3.898-3.898zm7.796 10.625l-3.898 3.898-3.898-3.898 3.898-3.898 3.898 3.898zm-3.898-25.149l3.898 3.898-3.898 3.898-3.898-3.898 3.898-3.898zm-1.414 9.211l-3.898 3.898-3.898-3.898 3.898-3.898 3.898 3.898zm-14.903-14.144l0.38-0.38 3.898 3.898-2.229 2.229-2.049-5.747zm2.793 7.832l2.899-2.899 3.898 3.898-3.898 3.898-1.791-1.791-1.108-3.106zm2.794 7.832l0.105-0.105 3.898 3.898-1.954 1.954-2.049-5.747zm4.205 11.792l-1.413-3.96 2.625-2.625 3.898 3.898-3.898 3.898-1.212-1.211zm3.431 9.618l-1.863-5.223 3.543 3.543-1.68 1.68zm3.053 8.56l-2.31-6.476 2.351-2.351 2.29 2.29-2.331 6.537zm3.074-8.621l-1.619-1.619 3.415-3.415-1.796 5.034zm3.364-9.431l-1.085 1.085-3.898-3.898 3.898-3.898 2.564 2.564-1.479 4.147zm2.223-6.232l-1.894-1.894 3.898-3.898 0.046 0.045-2.05 5.747zm3.668-10.283l-1.663 1.663-3.898-3.898 3.898-3.898 2.838 2.838-1.175 3.295zm1.919-5.38l-2.168-2.168 3.898-3.898 0.319 0.319-2.049 5.747z" fill="#E84D37"/>
</svg>
