<?xml version="1.0" encoding="UTF-8"?>
<!DOCTYPE svg  PUBLIC '-//W3C//DTD SVG 1.1//EN'  'http://www.w3.org/Graphics/SVG/1.1/DTD/svg11.dtd'>
<svg enable-background="new 0 0 32 32" version="1.1" viewBox="0 0 32 32" xml:space="preserve" xmlns="http://www.w3.org/2000/svg">
	<path d="m16 0c-8.836 0-16 7.164-16 16 0 8.837 7.164 16 16 16 8.837 0 16-7.163 16-16 0-8.836-7.163-16-16-16zm7.944 12.809c-0.251 6.516-3.463 10.832-10.992 10.702h-0.233-0.021-0.232c-0.447 0-4.543-0.443-5.344-1.823 2.479 0.19 4.247-0.406 5.12-1.136-1.048-0.289-2.923-0.461-3.251-2.848 0.384 0.104 0.618 0.221 1.299 0.113-1.307-0.824-2.758-1.519-2.679-3.643 0.311 0.317 1.164 0.518 1.46 0.457-0.768-0.233-2.149-3.244-0.974-4.781 1.984 1.79 4.075 3.482 7.804 3.643 0.227-2.214 1.24-3.699 3.168-4.325 1.84-0.479 3.255 0.26 3.901 1.138 0.737-0.224 1.453-0.466 2.193-0.685-4e-3 0.833-0.569 1.463-0.935 1.709 0.747 0.165 1.423-0.475 1.423-0.475-0.184 0.963-1.094 1.725-1.707 1.954z" fill="#fff"/>
</svg>
