<?xml version="1.0" encoding="UTF-8"?>
<!DOCTYPE svg  PUBLIC '-//W3C//DTD SVG 1.1//EN'  'http://www.w3.org/Graphics/SVG/1.1/DTD/svg11.dtd'>
<svg enable-background="new 0 0 32 32" version="1.1" viewBox="0 0 32 32" xml:space="preserve" xmlns="http://www.w3.org/2000/svg">
<g fill="#fff">
	<path d="m16.637 14.495c0.402-0.019 0.719-0.082 0.951-0.188 0.326-0.145 0.54-0.33 0.641-0.559s0.15-0.496 0.15-0.797c0-0.232-0.058-0.465-0.174-0.697s-0.322-0.405-0.617-0.517c-0.264-0.1-0.592-0.155-0.984-0.165-0.392-9e-3 -0.943-0.014-1.652-0.014h-0.339v2.965h0.565c0.571 0 1.057-9e-3 1.459-0.028z"/>
	<path d="m18.118 17.084c-0.282-0.081-0.672-0.125-1.166-0.132-0.494-6e-3 -1.012-9e-3 -1.55-9e-3h-0.79v3.493h0.264c1.014 0 1.74-3e-3 2.18-9e-3 0.438-7e-3 0.843-0.088 1.212-0.245 0.377-0.157 0.633-0.364 0.774-0.625s0.214-0.562 0.214-0.9c0-0.446-0.088-0.788-0.261-1.03-0.17-0.241-0.464-0.423-0.877-0.543z"/>
	<path d="m16 0c-8.836 0-16 7.164-16 16 0 8.837 7.164 16 16 16 8.837 0 16-7.163 16-16 0-8.836-7.163-16-16-16zm6.602 20.531c-0.273 0.533-0.646 0.976-1.124 1.327-0.552 0.415-1.161 0.71-1.823 0.886s-1.501 0.264-2.519 0.264h-6.121v-14.021h5.443c1.13 0 1.957 0.038 2.48 0.113 0.524 0.076 1.045 0.242 1.561 0.5 0.533 0.27 0.929 0.632 1.189 1.087s0.392 0.975 0.392 1.558c0 0.678-0.179 1.278-0.536 1.795-0.358 0.518-0.863 0.92-1.517 1.208v0.075c0.917 0.182 1.642 0.559 2.179 1.13s0.807 1.325 0.807 2.261c0 0.678-0.138 1.283-0.411 1.817z"/>
</g>
</svg>
