<?xml version="1.0" encoding="UTF-8"?>
<!DOCTYPE svg  PUBLIC '-//W3C//DTD SVG 1.1//EN'  'http://www.w3.org/Graphics/SVG/1.1/DTD/svg11.dtd'>
<svg enable-background="new 0 0 154 64" version="1.1" viewBox="0 0 154 64" xml:space="preserve" xmlns="http://www.w3.org/2000/svg">
<g fill="#fff">
	<path d="m59.292 42.755c-0.833-0.25-2.153 0.373-2.153 0.373s-3.027 2.513-17.84-0.378c-10.908-2.129-16.583-1.917-16.583-1.917s1.833-12.5 1.333-16c0 0 0-0.917-1.083-0.917s-1.75 0.417-1.75 1 0.167 4.417-0.25 7.083c0 0-1.417 4.251-6.167 3.917s-5.75-3.75-6.167-6.083-0.666-8.833 0.584-11.5c0 0 7.167 0.25 11.667-3.583s4.25-7.167 2.083-8.583-7.083-1.167-10.917 2.333-5.083 7-5.083 7-5.625-1.208-4.333-7.083c1.349-6.14 9.76-5.417 9.76-5.417 1.75 0.333 1.823 0.5 2.406-0.083s1-2.083-1.75-2.167-11 1.271-12.583 6.75c-1.685 5.828 1.435 9.997 5.622 10.643 0 0-2.288 10.107 0.545 15.107s6.94 4.917 8.595 4.917 4.572-0.916 5.405-2.25c0 0-0.393 3.581-0.724 4.88 0 0-6.935-0.095-9.109 1.036-3.688 1.917-2.917 6.48-1.5 8.104 1.204 1.38 4.812 2.125 7.417 0.896 2.705-1.277 4.865-3.739 5.549-7.697 0 0 6.368-0.469 12.534 1.364s14.756 3.556 17.34 3.556 8.046-0.738 8.327-2.889c0.186-1.438-0.342-2.162-1.175-2.412zm-43.43-33.427s3.281-2.5 4.844-0.938c0 0 1.25 1.281 0.094 2.812-0.656 0.869-2.396 3.589-10.656 4.938-1e-3 1e-3 2.593-4.562 5.718-6.812zm0.265 38.906s-4.531 2.469-5.047-0.875c-0.333-2.158 0.89-3.18 1.687-3.57s1.875-0.879 6.579-0.711c0 0 0 3.328-3.219 5.156z"/>
	<path d="m73.576 24.477c0 2.256-1e-3 4.513-2e-3 6.77-7e-3 0.038-0.019 0.075-0.021 0.115-0.035 0.931-0.418 1.734-0.861 2.537-0.298 0.541-0.716 1.056-1.18 1.463-0.533 0.469-0.877-0.564-1.078-0.985-1.391-2.915-0.726-6.812-0.187-9.862 0.257-1.454-2.706-1.077-2.936 0.222-0.334 1.888-0.869 5.118-0.547 7.906-0.587 0.101-1.167 0.366-1.341 0.737-0.511 1.088-2.009 4.704-3.833 3.258-1.319-1.046-1.461-3.743-1.6-5.268-0.191-2.111 0.154-4.267 0.816-6.266-0.058 0.173 1.14-2.823 1.67-1.703 0.326 0.69 0.032 2.641-0.608 3.122-1.571 1.182 0.875 1.67 1.824 0.956 1.802-1.356 3.05-5.708-0.074-6.232-3.464-0.581-5.438 2.923-6.163 5.697-0.335 1.279-0.563 3.074-0.504 4.886-0.481 0.832-2.097 3.533-3.047 4.026-1.125 0.584-1.104-0.229-1.062-0.75s0.542-5.146 0.813-8.271c0.175-2.014-0.062-2.771-0.5-3.646s-3.994-2.825-7.146 0.833c-2.183 2.534-2.912 4.927-3.08 7.054-0.213 0.425-0.443 0.873-0.71 1.362-1.5 2.75-3.384 3.909-4.062 2-0.594-1.672-0.906-3.703-0.75-6.188 5e-3 -0.088 3.5-5 5.062-11.75s1.25-10.062 0.438-10.625-4.25-1.938-6.312 6.25c-1.523 6.047-2.137 12.5-1.565 17.879-0.317 0.684-0.719 1.499-1.229 2.434-1.5 2.75-3.384 3.909-4.062 2-0.594-1.672-0.906-3.703-0.75-6.188 5e-3 -0.088 3.5-5 5.062-11.75s1.25-10.062 0.438-10.625-4.25-1.938-6.312 6.25-2.465 17.126-0.5 23.125c0 0 1.081 3.375 3.103 3.125 1.671-0.207 3.656-1.846 4.829-4.906 0.144 0.615 0.301 1.215 0.487 1.781 0 0 1.081 3.375 3.103 3.125 1.376-0.17 2.964-1.32 4.14-3.423 0.711 1.839 2.239 3.34 4.213 2.985 2.667-0.479 3.218-1.932 3.218-1.932s-0.051 2.383 1.657 2.383c1.525 0 2.729-0.889 3.938-3.159 0.409-0.77 0.642-1.218 0.773-1.481 0.356 2.144 1.241 4.055 3.018 4.83 2.976 1.298 5.62-1.172 7.167-3.608 0.473 1.199 1.24 2.156 2.461 2.616 1.338 0.505 2.659 0.013 3.772-0.928-5e-3 1.173-0.016 2.346-0.026 3.519-0.584 1e-3 -1.239 0.143-1.547 0.415-3.203 2.825-4.598 6.241-4.195 10.521 0.233 2.48 2.576 3.597 4.725 2.662 3.101-1.35 3.57-6.021 3.83-8.836 0.625-6.829 0.139-13.939 0.139-20.791 0-1.293-2.906-0.702-2.906 0.329zm-43.324-11.196c0.688-2.656 1.329-3.719 1.954-3.719s0.938 0.719 0.469 3-1.987 8.626-4.094 12.75c0 0 0.983-9.374 1.671-12.031zm8.418 0c0.688-2.656 1.329-3.719 1.954-3.719s0.938 0.719 0.469 3-1.987 8.626-4.094 12.75c0 0 0.984-9.374 1.671-12.031zm12.859 12.427c-0.074 0.58-0.459 4.292-0.959 6.292s-0.953 2.78-2.583 3.438c-1.704 0.688-2.438-1.418-2.438-1.418-1.146-3.208 0.396-6.042 1.667-7.919s2.573-2.096 3.312-1.955c0.24 0.045 1.146 0.437 1.001 1.562zm21.972 18.056c-0.038 2.683-0.381 5.377-1.579 7.81-0.701 0.146-1.029-0.117-1.239-1.237-0.149-1.091-0.132-2.174 0.049-3.251 0.24-2.021 1.382-3.736 2.783-5.153-7e-3 0.61-5e-3 1.22-0.014 1.831z"/>
	<path d="m92.301 21.649c-2.541-1.229-4.811-3.29-5.715-6-1.279-3.827 2.928-6.647 6.275-6.474 3.488 0.181 5.137 3.625 4.967 6.709-0.061 1.095-0.748 3.557-2.096 2.277-0.951-0.906-1.369-2.375-1.566-3.632-0.191-1.21-3.1-0.495-2.898 0.776 0.578 3.657 4.527 7.689 7.898 3.863 3.014-3.418 1.656-9.462-2.574-11.233-4.523-1.893-10.135 0.077-12.529 4.327-2.732 4.85 2.748 9.598 6.629 11.321 6.225 3.338 6.455 14.054-1.818 14.126-3.43 0.03-6.619-2.438-7.693-5.609-0.572-1.688-0.279-7.553 2.014-8.003 1.807-0.354 1.311-2.04-0.453-1.693-3.713 0.727-5.08 5.515-4.721 8.858 0.576 5.341 5.578 8.339 10.631 8.295 4.682-0.041 8.654-2.929 9.625-7.549 0.938-4.482-1.912-8.768-5.976-10.359z"/>
	<path d="m110.88 37.532c-2.855-1.552-1.223-7.563-0.791-9.875 0.279-1.492 1.555-3.794-0.494-4.296-2.385-0.584-5.223 1.687-7.277 3.858 0.012-2.506 0.17-4.999 0.553-7.478 3.088-1.576 5.4-3.821 7.182-7.395 1.295-2.604 1.941-7.971-2.461-6.422-3.986 1.403-5.377 6.017-6.619 9.688-0.484 1.43-0.836 2.894-1.094 4.378-0.398 0.16-0.803 0.312-1.219 0.44-1.658 0.512-1.441 1.407 0.238 0.89 0.275-0.085 0.543-0.173 0.809-0.263-0.793 5.612-0.256 11.49 0.248 17.02 0.049 0.54 2.969-1e-3 2.898-0.777-0.227-2.468-0.414-4.922-0.496-7.364 0.283-0.104 0.52-0.236 0.633-0.387 0.889-1.175 1.982-2.203 3.08-3.177 0.299-0.261 0.605-0.513 0.92-0.755 0.154-0.113 0.307-0.226 0.459-0.339 0.674-0.53 0.799-0.543 0.381-0.04-0.061 0.916-0.459 1.93-0.625 2.832-0.549 2.992-2.127 8.889 1.346 10.775 0.745 0.403 3.43-0.715 2.329-1.313zm-6.486-24.101c0.305-0.897 0.715-1.77 1.094-2.636 0.473-1.082 1.73-4.768 2.645-3.004 0.729 1.404-0.426 3.717-0.938 5.067-0.83 2.185-2.254 3.95-4.047 5.297 0.31-1.58 0.714-3.155 1.246-4.724z"/>
	<path d="m121.64 30.527c6e-3 -3.288-0.375-7.506-4.303-7.863-4.309-0.392-6.006 4.123-6.064 7.49-4e-3 0.274 0.135 0.456 0.35 0.569-4e-3 3.15 0.76 7.26 4.508 7.197 4.181-0.068 5.505-3.714 5.509-7.393zm-4.998 5.475c-2.441-0.971-2.219-5.203-2.053-7.24 0.02-0.24-0.078-0.411-0.246-0.525 0.301-2.017 1.082-5.03 2.863-3.506 1.416 1.211 1.445 4.148 1.521 5.835 0.053 1.144-0.105 6.224-2.085 5.436z"/>
	<path d="m153.14 48.58c-1.127-2.886-3.588-3.994-6.293-4.128-0.285-0.677-0.656-1.371-1.133-2.076-3.91-5.788-13.189-5.019-19.475-1.948-0.041-0.913-0.09-1.824-0.129-2.73 2.533 0.127 5-0.852 6.502-2.997 1.676-2.395 1.434-6.632 0.777-9.314-0.619-2.525-3.088-2.072-4.93-1.234-0.656 0.298-1.279 0.744-1.865 1.261 0.055-0.672 0.111-1.345 0.16-2.014 0.111-1.542-2.842-1.153-2.941 0.203-0.453 6.196-0.297 12.366-0.441 18.54-4.271 3.862-5.348 7.501-5.391 12.06-0.02 2.271 1.934 3.961 3.982 2.386 2.895-2.224 3.771-6.629 4.172-9.984 0.178-1.491 0.197-3.009 0.16-4.528 4.49-2.941 10.635-3.149 15.205-0.1 0.938 0.626 1.711 1.594 2.262 2.696-1.688 0.3-3.311 0.855-4.613 1.482-1.713 0.825-4.256 2.765-4.131 4.936 0.098 1.69 1.029 2.638 2.283 2.979 0.078 0.033 0.17 0.063 0.299 0.084 6.135 0.995 10.703-2.626 9.828-7.737 2.984 1.625 4.107 5.405 3.043 8.66-2.387 7.304-11.584 8.932-16.949 4.054-0.574-0.523-3.184 0.577-2.729 0.992 7.786 7.076 27.058 0.53 22.347-11.543zm-29.944-1.775c-0.102 1.738-0.459 3.549-1.145 5.143-0.246 0.544-0.512 1.076-0.801 1.598 0 0-0.26 0.064-0.316-0.717 0.025-2.858 0.809-5.577 2.346-7.892-0.025 0.623-0.048 1.245-0.084 1.868zm3.129-17.858c0.059-0.055 0.111-0.111 0.146-0.172 0.516-0.917 1.207-1.728 1.908-2.507 0.527-0.586 1.119-1.138 1.803-1.539 0.324 0.162 0.654 0.991 0.777 2.131 0.303 2.772 0.439 10.096-3.945 9.407-0.209-0.033-0.57 0.043-0.947 0.171v-0.039c-0.06-2.478 0.075-4.967 0.258-7.452zm13.08 23.744c-0.016-3e-3 -0.037-1e-3 -0.055-3e-3 -1.689-0.398-1.502-1.99-1.289-3.086 0.492-2.524 3.576-3.883 6.117-3.959 1.284 3.567 0.296 7.87-4.773 7.048z"/>
</g>
</svg>
